<svg width="193" height="168" viewBox="0 0 193 168" fill="none" xmlns="http://www.w3.org/2000/svg">
<path d="M34.7012 216.923C-6.14721 216.923 -39.2621 183.762 -39.2621 142.855C-39.2621 101.948 -6.1472 68.7868 34.7012 68.7868C75.5495 68.7868 108.664 101.948 108.664 142.855C108.664 183.762 75.5495 216.923 34.7012 216.923Z" stroke="white" stroke-width="0.589163"/>
<path d="M42.5188 219.859C-3.18616 219.859 -40.2381 182.755 -40.2381 136.984C-40.2381 91.2138 -3.18616 54.11 42.5188 54.11C88.2238 54.11 125.276 91.2138 125.276 136.984C125.276 182.755 88.2238 219.859 42.5188 219.859Z" stroke="white" stroke-width="0.589163"/>
<path d="M48.8682 222.795C-1.15377 222.795 -41.7053 182.186 -41.7053 132.092C-41.7053 81.9986 -1.15376 41.3903 48.8682 41.3903C98.8902 41.3903 139.442 81.9986 139.442 132.092C139.442 182.186 98.8902 222.795 48.8682 222.795Z" stroke="white" stroke-width="0.589163"/>
<path d="M58.1498 224.752C4.35042 224.752 -39.2633 181.077 -39.2633 127.2C-39.2633 73.3239 4.35043 29.6491 58.1498 29.6491C111.949 29.6491 155.563 73.3239 155.563 127.2C155.563 181.077 111.949 224.752 58.1498 224.752Z" stroke="white" stroke-width="0.589163"/>
<path d="M67.1893 226.707C9.74746 226.707 -36.819 180.075 -36.819 122.551C-36.819 65.027 9.74747 18.3952 67.1893 18.3952C124.631 18.3952 171.198 65.027 171.198 122.551C171.198 180.075 124.631 226.707 67.1893 226.707Z" stroke="white" stroke-width="0.589163"/>
<path d="M77.4476 229.154C14.3397 229.154 -36.8201 177.923 -36.8201 114.724C-36.8201 51.5261 14.3397 0.294574 77.4476 0.294577C140.555 0.294579 191.715 51.5261 191.715 114.724C191.715 177.923 140.555 229.154 77.4476 229.154Z" stroke="white" stroke-width="0.589163"/>
</svg>
